<svg width="34" height="59" viewBox="0 0 34 59" fill="none" xmlns="http://www.w3.org/2000/svg">
<path d="M4.28675 44.0894C4.28675 45.9951 4.361 47.3399 4.5095 48.1236C4.658 48.8991 4.99625 49.5591 5.52425 50.1036C6.34925 50.9451 7.364 51.3659 8.5685 51.3659C9.7895 51.3659 10.8084 50.9575 11.6251 50.1408C12.1119 49.6458 12.4336 49.0683 12.5904 48.4083C12.7554 47.74 12.8379 46.7541 12.8379 45.4506H9.58325C9.20375 45.4506 8.9315 45.4011 8.7665 45.3021C8.52725 45.1454 8.40762 44.9144 8.40762 44.6091C8.40762 44.3039 8.52725 44.0729 8.7665 43.9161C8.9315 43.8171 9.20375 43.7676 9.58325 43.7676H13.5309C13.9516 43.7676 14.2486 43.8543 14.4219 44.0275C14.5951 44.2008 14.6817 44.4978 14.6817 44.9185V45.2403C14.6817 46.9068 14.5662 48.1608 14.3352 49.0023C14.1125 49.8355 13.6464 50.6028 12.9369 51.304C11.7736 52.4673 10.3175 53.0489 8.5685 53.0489C6.81125 53.0489 5.34687 52.4714 4.17537 51.3164C3.83712 50.9781 3.55662 50.6358 3.33387 50.2893C3.11937 49.9428 2.94612 49.5963 2.81412 49.2498C2.68212 48.895 2.58312 48.4413 2.51712 47.8885C2.45937 47.3275 2.42225 46.7871 2.40575 46.2674C2.38925 45.7394 2.381 45.0134 2.381 44.0894C2.381 42.9509 2.39337 42.0764 2.41812 41.4659C2.45112 40.8471 2.5295 40.2325 2.65325 39.622C2.777 39.0115 2.95437 38.5041 3.18537 38.0999C3.42462 37.6956 3.75462 37.2831 4.17537 36.8624C5.31387 35.7074 6.77412 35.1299 8.55612 35.1299C10.5526 35.1299 12.1284 35.8353 13.2834 37.246C13.6299 37.6668 13.9021 38.1205 14.1001 38.6073C14.3064 39.094 14.4095 39.4941 14.4095 39.8076C14.4095 40.1046 14.327 40.3356 14.162 40.5006C13.997 40.6656 13.7866 40.7481 13.5309 40.7481C13.2916 40.7481 13.0977 40.6821 12.9492 40.5501C12.776 40.4016 12.6275 40.1376 12.5037 39.7581C12.182 38.8176 11.6829 38.0916 11.0064 37.5801C10.3299 37.0686 9.509 36.8129 8.54375 36.8129C7.3475 36.8129 6.341 37.2336 5.52425 38.0751C4.988 38.6196 4.64562 39.2838 4.49712 40.0675C4.35687 40.8513 4.28675 42.1919 4.28675 44.0894ZM20.1735 52.9004C19.7528 52.9004 19.4558 52.8138 19.2825 52.6405C19.1093 52.4673 19.0227 52.1703 19.0227 51.7495V36.4293C19.0227 36.0085 19.1093 35.7115 19.2825 35.5383C19.4558 35.365 19.7528 35.2784 20.1735 35.2784H25.6804C27.2479 35.2784 28.5102 35.6991 29.4672 36.5406C30.4242 37.3821 30.9027 38.5289 30.9027 39.9809C30.9027 40.8884 30.6552 41.6886 30.1602 42.3816C29.6734 43.0746 29.0464 43.5614 28.2792 43.8419C29.1619 44.1636 29.8632 44.6875 30.3829 45.4135C30.9109 46.1313 31.1749 47.0016 31.1749 48.0246C31.1749 49.5839 30.6964 50.7884 29.7394 51.6381C28.7907 52.4796 27.5119 52.9004 25.9032 52.9004H20.1735ZM25.7299 44.7576H20.9284V51.2174H25.7299C26.8189 51.2174 27.681 50.9245 28.3163 50.3388C28.9515 49.753 29.2692 48.9651 29.2692 47.9751C29.2692 46.9851 28.9515 46.2014 28.3163 45.6239C27.681 45.0464 26.8189 44.7576 25.7299 44.7576ZM25.5319 36.9614H20.9284V43.0746H25.5319C26.5632 43.0746 27.3964 42.8148 28.0317 42.295C28.6752 41.7753 28.9969 41.0121 28.9969 40.0056C28.9969 38.9991 28.6752 38.2401 28.0317 37.7286C27.3964 37.2171 26.5632 36.9614 25.5319 36.9614Z" fill="#FACD11"/>
<path d="M0.775391 0.0693359H30.3739V27.9045H0.775391V0.0693359Z" fill="white" fill-opacity="0.01"/>
<path d="M15.5742 2.38916V4.70876" stroke="#FACD11" stroke-width="2.46654" stroke-linecap="round" stroke-linejoin="round"/>
<path d="M21.7411 3.94287L20.5078 5.95168" stroke="#FACD11" stroke-width="2.46654" stroke-linecap="round" stroke-linejoin="round"/>
<path d="M26.2552 8.18896L24.1191 9.34876" stroke="#FACD11" stroke-width="2.46654" stroke-linecap="round" stroke-linejoin="round"/>
<path d="M27.9079 13.9873H25.4414" stroke="#FACD11" stroke-width="2.46654" stroke-linecap="round" stroke-linejoin="round"/>
<path d="M26.2552 19.7863L24.1191 18.6265" stroke="#FACD11" stroke-width="2.46654" stroke-linecap="round" stroke-linejoin="round"/>
<path d="M21.7411 24.0313L20.5078 22.0225" stroke="#FACD11" stroke-width="2.46654" stroke-linecap="round" stroke-linejoin="round"/>
<path d="M15.5742 25.5847V23.2651" stroke="#FACD11" stroke-width="2.46654" stroke-linecap="round" stroke-linejoin="round"/>
<path d="M9.4082 24.0313L10.6415 22.0225" stroke="#FACD11" stroke-width="2.46654" stroke-linecap="round" stroke-linejoin="round"/>
<path d="M4.89453 19.7863L7.03059 18.6265" stroke="#FACD11" stroke-width="2.46654" stroke-linecap="round" stroke-linejoin="round"/>
<path d="M3.24219 13.9873H5.70873" stroke="#FACD11" stroke-width="2.46654" stroke-linecap="round" stroke-linejoin="round"/>
<path d="M4.89453 8.18896L7.03059 9.34876" stroke="#FACD11" stroke-width="2.46654" stroke-linecap="round" stroke-linejoin="round"/>
<path d="M9.4082 3.94287L10.6415 5.95168" stroke="#FACD11" stroke-width="2.46654" stroke-linecap="round" stroke-linejoin="round"/>
</svg>
